<svg id="__TEMP__SVG__" xmlns="http://www.w3.org/2000/svg" width="22.72" height="18.46" viewBox="0 0 22.72 18.46">
  <path id="Path_1" data-name="Path 1" d="M.71,18a.741.741,0,0,1,.71.769v5.384a1.483,1.483,0,0,0,1.42,1.538H19.88a1.483,1.483,0,0,0,1.42-1.538V18.769a.712.712,0,1,1,1.42,0v5.384a2.965,2.965,0,0,1-2.84,3.077H2.84A2.965,2.965,0,0,1,0,24.153V18.769A.741.741,0,0,1,.71,18Z" transform="translate(0 -8.77)" fill="#384839" fill-rule="evenodd"/>
  <path id="Path_2" data-name="Path 2" d="M11.146,16.771a.769.769,0,0,1,1.088,0L15.761,20.3l3.527-3.527a.769.769,0,1,1,1.088,1.088l-4.071,4.072a.769.769,0,0,1-1.089,0l-4.07-4.072a.769.769,0,0,1,0-1.088Z" transform="translate(-4.401 -7.817)" fill="#384839" fill-rule="evenodd"/>
  <path id="Path_3" data-name="Path 3" d="M17.644,2.25a.769.769,0,0,1,.769.769V15.326a.769.769,0,1,1-1.538,0V3.019A.769.769,0,0,1,17.644,2.25Z" transform="translate(-6.284 -2.25)" fill="#384839" fill-rule="evenodd"/>
</svg>
