<svg xmlns="http://www.w3.org/2000/svg" width="23.741" height="24.36" viewBox="0 0 23.741 24.36">
  <path id="google" d="M25.61,13.629H14.9v3.189h7.6c-.385,4.45-4.088,6.354-7.592,6.354a8.374,8.374,0,0,1-8.4-8.491,8.371,8.371,0,0,1,8.409-8.491,8.208,8.208,0,0,1,5.723,2.3l2.219-2.313A11.294,11.294,0,0,0,14.807,3,11.876,11.876,0,0,0,3.045,14.68,11.826,11.826,0,0,0,14.982,26.36c6.249,0,10.8-4.286,10.8-10.617a10.526,10.526,0,0,0-.175-2.114Z" transform="translate(-2.545 -2.5)" fill="#384839" stroke="#707070" stroke-width="1" opacity="0.953"/>
</svg>
