<svg xmlns="http://www.w3.org/2000/svg" width="23.531" height="23.531" viewBox="0 0 23.531 23.531">
  <path id="logo-linkedin" d="M25.229,4.5H6.425A1.838,1.838,0,0,0,4.5,6.255V25.1a1.983,1.983,0,0,0,1.925,1.931h18.8A1.882,1.882,0,0,0,27.031,25.1V6.255A1.728,1.728,0,0,0,25.229,4.5ZM11.484,23.281H8.256V13.245h3.228V23.281Zm-1.5-11.562H9.958a1.656,1.656,0,0,1-1.7-1.731A1.667,1.667,0,0,1,10,8.256a1.663,1.663,0,0,1,1.725,1.731,1.667,1.667,0,0,1-1.743,1.731Zm13.3,11.562H20.053V17.793c0-1.315-.47-2.213-1.638-2.213a1.766,1.766,0,0,0-1.655,1.191,2.181,2.181,0,0,0-.112.792v5.717H13.42V13.245h3.228v1.4A3.267,3.267,0,0,1,19.56,13.01c2.118,0,3.721,1.4,3.721,4.407Z" transform="translate(-4 -4)" fill="#384839" stroke="#707070" stroke-width="1" opacity="0.953"/>
</svg>
