<svg xmlns="http://www.w3.org/2000/svg" width="27.286" height="27.286" viewBox="0 0 27.286 27.286">
  <path id="logo-github" d="M15.393,2.25A13.316,13.316,0,0,0,2.25,15.728a13.451,13.451,0,0,0,8.989,12.785,1.033,1.033,0,0,0,.223.023.636.636,0,0,0,.675-.669c0-.323-.012-1.167-.018-2.294a5.991,5.991,0,0,1-1.326.159,3.055,3.055,0,0,1-3.1-1.965,3.562,3.562,0,0,0-1.461-1.972c-1.144-.8-.006-.827.082-.827h.006a2.827,2.827,0,0,1,2.013,1.4,2.58,2.58,0,0,0,2.323,1.473,3.693,3.693,0,0,0,1.5-.352,2.914,2.914,0,0,1,.833-1.8C10.07,21.342,7,20.186,7,15.023a5.276,5.276,0,0,1,1.349-3.614A4.96,4.96,0,0,1,8.48,7.842a1.1,1.1,0,0,1,.294-.029A6.248,6.248,0,0,1,12.1,9.227a12.228,12.228,0,0,1,6.584,0A6.246,6.246,0,0,1,22,7.813a1.1,1.1,0,0,1,.294.029,4.964,4.964,0,0,1,.129,3.567,5.3,5.3,0,0,1,1.349,3.614c0,5.175-3.074,6.314-6,6.647a3.266,3.266,0,0,1,.892,2.493c0,1.8-.018,3.256-.018,3.7a.633.633,0,0,0,.669.675,1.138,1.138,0,0,0,.234-.023,13.451,13.451,0,0,0,8.987-12.785A13.316,13.316,0,0,0,15.393,2.25Z" transform="translate(-1.75 -1.75)" fill="#384839" stroke="#707070" stroke-width="1" opacity="0.953"/>
</svg>
